<?xml version="1.0" standalone="no"?>
<!DOCTYPE svg PUBLIC "-//W3C//DTD SVG 20010904//EN"
 "http://www.w3.org/TR/2001/REC-SVG-20010904/DTD/svg10.dtd">
<svg version="1.0" xmlns="http://www.w3.org/2000/svg"
 width="2477.000000pt" height="2476.000000pt" viewBox="0 0 2477.000000 2476.000000"
 preserveAspectRatio="xMidYMid meet">

<g transform="translate(0.000000,2476.000000) scale(0.100000,-0.100000)"
fill="#000000" stroke="none">
<path d="M10 12380 l0 -12380 12375 0 12375 0 0 12380 0 12380 -12375 0
-12375 0 0 -12380z m12531 8794 c1984 -912 4106 -1415 6304 -1496 241 -8 341
-16 350 -24 13 -14 13 -16 -5 -434 -65 -1470 -325 -2977 -755 -4385 -74 -241
-259 -794 -277 -828 -7 -13 4 -44 46 -130 99 -202 132 -356 123 -584 -6 -173
-38 -318 -107 -480 -42 -99 -160 -312 -183 -331 -6 -6 -144 -67 -305 -136
-161 -69 -305 -132 -321 -141 -23 -11 -52 -59 -136 -222 -221 -428 -508 -924
-776 -1341 -185 -287 -401 -596 -425 -606 -12 -6 -170 -245 -385 -583 -200
-315 -394 -620 -431 -678 l-68 -105 -128 0 -129 0 5 -30 c4 -26 -6 -41 -76
-116 -45 -48 -79 -91 -76 -96 3 -4 20 -8 39 -8 53 0 259 -38 350 -64 503 -146
792 -470 882 -986 23 -133 23 -475 0 -625 -43 -273 -124 -493 -245 -665 -63
-91 -212 -236 -305 -299 -225 -151 -513 -248 -836 -281 -68 -6 -757 -10 -2007
-10 l-1903 0 -11 21 c-10 17 -3 34 47 112 33 51 236 368 453 706 l394 614 -27
19 c-48 35 -319 259 -457 377 -225 194 -464 415 -688 635 -116 115 -214 207
-216 205 -2 -2 -293 -497 -646 -1099 -354 -602 -664 -1126 -691 -1165 -122
-177 -296 -341 -433 -410 -108 -54 -178 -73 -307 -84 -174 -16 -325 11 -474
84 -140 69 -297 218 -410 390 -40 60 -2350 4073 -2414 4193 -8 16 -9 27 -1 42
11 20 19 20 876 18 l866 -3 739 -1315 c407 -723 745 -1323 750 -1333 9 -15
105 143 560 918 302 515 549 938 549 941 0 2 -50 68 -112 146 -61 78 -173 225
-248 328 -1835 2490 -2958 5561 -3214 8790 -37 462 -61 1002 -45 1031 8 16 21
19 78 19 49 0 72 4 81 15 15 18 46 20 56 3 18 -29 844 22 1414 88 1719 198
3473 689 4995 1397 77 36 147 66 156 66 9 1 81 -29 160 -65z m5119 -12624 l5
-1595 1432 -3 c1375 -2 1433 -3 1442 -20 7 -13 6 -26 -3 -43 -21 -38 -877
-1362 -894 -1382 -14 -16 -106 -17 -1726 -15 l-1711 3 -3 2315 c-1 1273 0
2321 3 2328 3 10 154 12 727 10 l723 -3 5 -1595z m-9446 -3356 c13 -12 16 -39
16 -125 l0 -109 258 0 c155 0 273 -4 297 -11 24 -7 56 -27 80 -53 l40 -41 30
34 c59 67 77 71 393 71 311 0 328 -3 389 -62 17 -17 37 -44 44 -60 l12 -30 15
28 c23 45 63 85 107 105 36 16 68 19 292 19 258 0 272 -2 285 -40 2 -5 25 1
53 15 l50 26 290 -3 c326 -3 343 -7 394 -78 l26 -37 46 48 c29 29 61 51 85 58
24 7 147 11 314 11 312 0 328 -4 390 -77 l33 -40 36 40 c70 78 64 77 554 77
343 -1 438 -4 446 -14 7 -8 12 -122 13 -327 l3 -314 250 0 250 0 3 314 c1 212
6 319 13 328 15 17 150 18 167 1 7 -7 12 -42 12 -82 l1 -71 21 42 c25 54 76
99 125 112 56 16 665 15 681 -1 9 -9 12 -115 12 -415 0 -460 8 -423 -95 -423
-102 0 -95 -25 -95 340 l0 320 -225 0 -225 0 0 -314 c0 -366 6 -346 -97 -346
-87 0 -103 14 -103 89 l0 56 -26 -42 c-15 -26 -44 -54 -72 -70 l-47 -28 -265
-3 c-314 -4 -352 1 -416 60 l-44 41 0 -40 c0 -21 -5 -44 -12 -51 -9 -9 -100
-12 -348 -12 -375 0 -408 4 -466 61 l-34 33 0 -37 c0 -26 -6 -39 -20 -47 -14
-7 -134 -10 -373 -8 l-352 3 -47 28 c-26 15 -52 35 -57 45 -26 44 -26 44 -77
-7 -31 -31 -64 -53 -89 -60 -52 -14 -546 -15 -598 0 -47 13 -115 72 -134 116
-7 18 -13 50 -13 72 0 50 17 61 97 61 63 0 89 -13 95 -45 3 -19 11 -20 253
-20 l250 0 0 65 0 65 -275 5 c-302 5 -304 6 -367 72 -44 46 -53 76 -53 174 l0
84 -222 -2 -223 -3 -3 -314 c-2 -222 -6 -318 -14 -328 -9 -11 -30 -13 -87 -9
-42 2 -83 4 -91 4 -8 -1 -177 -2 -375 -2 -354 -1 -361 -1 -402 21 -22 12 -52
36 -65 53 l-25 32 -16 -26 c-9 -14 -38 -38 -64 -53 l-48 -28 -356 -3 c-305 -3
-359 -1 -371 12 -14 13 -16 4 -20 -77 -5 -99 -18 -135 -65 -179 -57 -55 -78
-58 -381 -58 -203 0 -281 3 -290 12 -16 16 -16 150 0 166 9 9 84 12 275 12
l263 0 0 54 0 55 -272 3 c-260 3 -275 4 -315 25 -22 12 -53 37 -67 55 l-26 33
0 -47 c0 -36 -4 -50 -19 -58 -13 -6 -169 -10 -439 -10 -466 0 -492 3 -549 62
-62 64 -63 72 -63 450 0 205 4 358 10 380 14 48 53 94 101 119 37 18 58 19
496 17 l458 -3 0 -85 0 -85 -430 -5 -430 -5 -3 -327 -2 -328 425 0 425 0 0
312 c0 366 -5 348 100 348 105 0 99 18 102 -346 l3 -309 245 0 245 0 5 318 c4
268 7 319 20 327 26 17 141 12 162 -7 17 -16 18 -11 18 113 0 88 4 134 12 142
19 19 153 16 172 -4z m6514 4 c7 -7 12 -41 12 -83 0 -42 -5 -76 -12 -83 -7 -7
-41 -12 -83 -12 -42 0 -76 5 -83 12 -7 7 -12 41 -12 83 0 42 5 76 12 83 7 7
41 12 83 12 42 0 76 -5 83 -12z m230 0 c8 -8 12 -50 12 -125 l0 -113 228 0
c125 0 234 -5 242 -10 13 -8 16 -59 20 -327 l5 -318 245 0 245 0 5 318 c4 268
7 319 20 327 8 5 44 10 79 10 109 0 101 40 101 -499 0 -294 -4 -480 -11 -504
-13 -49 -63 -105 -114 -128 -36 -17 -71 -19 -321 -19 -205 0 -283 3 -292 12
-7 7 -12 41 -12 83 0 42 5 76 12 83 9 9 84 12 275 12 l263 0 0 54 0 55 -272 3
c-272 3 -273 3 -319 29 l-46 26 -16 -29 -16 -28 -163 0 c-90 0 -179 5 -199 10
-56 16 -101 51 -129 100 l-25 45 -3 456 c-3 410 -1 458 13 473 20 20 154 23
173 4z m2769 0 c4 -7 10 -211 13 -453 l5 -440 78 -3 77 -3 0 319 c0 234 3 321
12 330 17 17 152 16 167 -1 7 -9 12 -116 13 -328 l3 -314 250 0 250 0 3 314
c1 212 6 319 13 328 8 9 37 13 90 13 l79 0 0 119 c0 99 3 120 16 125 28 11
150 6 162 -6 8 -8 12 -50 12 -125 l0 -113 268 0 c239 0 271 -2 307 -19 47 -22
99 -74 114 -114 7 -17 11 -129 11 -288 0 -287 -3 -305 -63 -367 -55 -57 -90
-62 -467 -62 -248 0 -339 3 -348 12 -7 7 -12 32 -12 57 l0 45 -37 -37 c-69
-72 -68 -72 -363 -75 -307 -4 -352 2 -411 55 l-39 35 0 -29 c0 -54 -26 -66
-137 -61 -130 6 -186 33 -227 113 l-16 30 0 -56 c0 -96 31 -90 -482 -87 l-445
3 -48 30 c-32 20 -56 45 -72 75 l-24 44 3 377 c3 424 -2 396 82 463 l38 31
469 0 c446 0 469 1 469 18 0 48 16 57 100 57 52 0 82 -4 87 -12z"/>
<path d="M12225 21133 c-1682 -780 -3621 -1291 -5490 -1447 -450 -38 -908 -58
-943 -43 -16 8 -26 7 -34 -1 -7 -7 -40 -12 -75 -12 l-64 0 5 -72 c3 -40 8
-149 11 -243 32 -966 181 -2120 406 -3135 544 -2455 1606 -4748 3070 -6630
l149 -192 -571 -974 c-314 -536 -575 -974 -579 -974 -4 0 -349 607 -766 1350
l-759 1350 -839 0 c-666 0 -837 -3 -833 -12 6 -16 2301 -4013 2364 -4118 100
-166 257 -336 377 -409 143 -86 271 -115 471 -108 151 5 227 22 336 78 117 58
272 202 386 357 31 41 593 991 1250 2111 657 1120 1204 2051 1215 2069 l20 32
-815 0 -815 0 -57 -96 c-47 -79 -59 -94 -70 -83 -20 22 -274 364 -366 494
-1147 1612 -1980 3515 -2423 5535 -179 817 -302 1710 -345 2510 -6 107 -13
227 -16 266 l-6 72 88 6 c48 3 147 8 218 11 72 3 247 15 390 26 1490 113 2959
448 4370 996 236 92 618 252 779 327 l99 46 201 -89 c1262 -561 2603 -953
3948 -1156 545 -82 1023 -127 1692 -161 l129 -6 -7 -157 c-29 -676 -120 -1455
-257 -2201 -40 -222 -33 -207 -77 -169 -48 42 -91 59 -153 59 -64 0 -107 -24
-136 -78 -22 -37 -43 -48 -1009 -493 -543 -250 -992 -456 -997 -458 -6 -2 -7
4 -3 15 5 11 20 73 34 139 23 108 26 141 26 330 0 236 -14 326 -79 512 -109
316 -360 726 -674 1103 -120 145 -429 455 -583 587 -441 376 -903 670 -1343
856 -180 75 -365 141 -455 162 -98 22 -270 22 -374 0 -260 -54 -796 -286
-1136 -490 -730 -439 -1242 -981 -1795 -1899 -230 -382 -298 -585 -298 -891
-1 -256 75 -531 192 -704 l41 -61 -24 -38 c-105 -167 -179 -404 -211 -680 -20
-169 -20 -542 0 -637 17 -83 89 -230 178 -367 l64 -98 -18 -167 c-16 -140 -17
-188 -9 -287 9 -104 43 -307 55 -326 3 -4 -105 -57 -238 -119 l-242 -111 -56
12 c-52 11 -60 10 -105 -13 -58 -29 -88 -70 -105 -146 -25 -110 22 -255 108
-334 55 -50 98 -69 160 -69 61 0 105 26 143 86 29 46 35 50 276 160 136 63
250 114 253 113 3 0 31 -32 61 -71 90 -117 245 -239 390 -307 l60 -29 -67 -58
c-122 -107 -235 -270 -273 -392 -40 -130 -33 -265 19 -377 39 -84 82 -130 155
-164 116 -55 133 -56 711 -53 676 3 762 12 931 93 167 79 325 268 378 450 l17
56 87 -18 c48 -11 151 -24 229 -31 162 -14 338 -2 502 32 52 11 95 20 97 20 1
0 11 -30 23 -67 36 -116 94 -209 196 -309 75 -75 107 -99 176 -132 172 -82
255 -90 944 -94 583 -3 606 -1 717 59 153 83 222 306 162 523 -32 115 -144
282 -260 389 l-64 58 84 41 c350 168 589 487 676 905 37 177 45 314 26 482 -9
83 -21 182 -27 222 l-12 72 67 66 c83 83 138 164 168 246 22 61 23 76 23 354
0 354 -22 523 -95 741 -17 48 -29 89 -27 90 3 4 329 154 333 154 2 0 4 -44 4
-97 0 -327 70 -639 196 -883 75 -143 158 -256 313 -425 152 -165 218 -246 266
-326 63 -103 133 -262 166 -375 l32 -111 -141 -284 c-386 -778 -826 -1504
-1306 -2154 l-96 -130 -1463 -6 c-1327 -5 -1472 -7 -1571 -23 -388 -62 -675
-193 -887 -405 -211 -211 -328 -477 -370 -841 -11 -102 -7 -398 8 -480 5 -32
-10 -19 -211 174 -119 115 -218 207 -219 205 -20 -28 -117 -200 -117 -207 0
-18 481 -476 657 -626 23 -19 23 -19 -2 42 -37 92 -30 88 23 -13 174 -333 498
-562 902 -640 47 -9 94 -19 105 -22 11 -4 551 -9 1200 -13 1288 -6 1234 -3
1279 -63 25 -34 33 -135 14 -191 -31 -94 -58 -97 -916 -94 l-703 3 162 130
162 130 -189 3 -188 2 -37 -27 c-20 -16 -100 -76 -178 -135 l-142 -108 -248 0
-248 0 -39 26 c-56 38 -275 208 -454 353 -348 282 -649 552 -987 885 -134 132
-245 237 -247 235 -2 -2 -32 -51 -67 -109 l-62 -105 174 -169 c363 -353 733
-682 1079 -959 96 -77 176 -144 178 -148 2 -4 -11 -9 -29 -11 -30 -3 -51 -34
-471 -688 l-439 -685 218 -3 c120 -1 997 -1 1948 1 1866 3 1752 0 1987 52 437
97 759 333 933 683 139 280 197 735 140 1097 -95 602 -503 946 -1203 1016
-109 11 -121 14 -110 28 7 8 55 60 106 116 l93 100 -163 3 -162 3 -116 -121
-115 -120 -100 0 -100 0 113 113 c61 62 112 116 112 120 0 4 -75 7 -167 7
l-167 0 -121 -120 -122 -120 -604 0 c-703 0 -761 5 -794 71 -18 34 -20 147 -4
183 7 14 30 33 53 43 39 17 118 18 1384 23 l1344 5 314 495 c173 272 367 577
431 678 71 111 122 182 132 182 17 1 20 4 246 340 351 520 657 1037 952 1607
58 112 110 206 116 210 7 5 154 69 327 144 l315 136 37 54 c58 86 144 265 182
379 52 162 70 286 63 454 -8 194 -44 326 -139 507 l-41 77 81 233 c563 1629
876 3261 962 5014 5 115 10 252 10 306 l0 96 -232 7 c-2203 65 -4373 574
-6397 1500 -79 36 -146 66 -150 65 -3 0 -69 -30 -146 -66z m251 -244 c49 -23
197 -88 329 -144 1884 -807 3877 -1261 5902 -1343 106 -5 194 -10 196 -13 5
-6 -10 -318 -28 -569 -107 -1500 -383 -2896 -852 -4313 -65 -198 -88 -255 -97
-248 -7 6 -35 53 -61 104 l-49 94 57 184 c382 1246 614 2559 687 3879 6 107
12 269 13 360 l2 165 -105 2 c-1228 25 -2514 216 -3710 550 -724 202 -1539
499 -2205 803 -99 45 -184 82 -190 82 -5 0 -125 -52 -265 -115 -490 -219 -870
-367 -1410 -548 -1199 -400 -2398 -641 -3650 -733 -224 -17 -581 -36 -663 -36
l-52 0 -153 171 c-84 94 -152 173 -150 174 2 2 93 8 203 15 1557 86 3008 364
4460 854 537 181 1196 440 1585 624 47 22 92 41 101 41 9 1 56 -18 105 -40z
m-6437 -1822 c139 -156 141 -158 141 -205 0 -152 40 -742 71 -1052 292 -2934
1342 -5668 3033 -7893 83 -109 155 -205 161 -212 6 -10 1 -28 -17 -62 -15 -26
-31 -49 -35 -50 -5 -2 -76 85 -159 193 -1914 2511 -3072 5622 -3324 8929 -27
364 -35 532 -22 520 5 -5 73 -81 151 -168z m5646 -445 c-6 -5 -77 -60 -160
-122 -164 -124 -321 -254 -484 -399 -116 -103 -487 -476 -502 -503 -8 -16 -4
-15 38 3 154 66 365 126 559 159 163 28 189 24 57 -10 -287 -72 -592 -201
-811 -343 -144 -93 -466 -390 -649 -599 -48 -54 -88 -96 -91 -93 -13 13 156
236 347 460 532 622 965 1003 1556 1369 127 79 165 100 140 78z m1640 -785
c115 -22 231 -53 332 -88 96 -34 276 -118 308 -144 19 -15 18 -15 -10 -2 -74
36 -303 112 -441 148 -201 51 -393 79 -599 87 -241 9 -162 22 110 18 142 -3
248 -9 300 -19z m-2998 -684 c-248 -295 -429 -715 -618 -1436 -44 -168 -44
-168 -63 -145 -25 32 -105 191 -128 258 -10 30 -26 86 -34 124 -14 66 -13 73
7 135 32 94 166 355 242 469 90 135 202 264 358 417 109 106 292 265 306 265
2 0 -30 -39 -70 -87z m911 32 c44 -13 77 -37 187 -136 223 -200 409 -407 529
-591 31 -47 56 -89 56 -92 0 -3 -109 -6 -242 -6 l-243 -1 -335 -464 c-184
-256 -336 -469 -338 -474 -4 -12 77 -37 166 -52 105 -19 300 -6 406 25 328 98
555 341 621 666 10 52 13 55 42 58 29 3 33 0 42 -35 69 -249 7 -512 -176 -739
-26 -33 -93 -107 -150 -166 -102 -107 -134 -154 -147 -215 l-7 -31 68 -16
c235 -53 410 -69 689 -64 229 5 372 20 528 57 l71 17 -2 37 c-4 57 -26 91
-144 214 -60 63 -136 151 -169 195 -71 94 -141 235 -165 333 -23 91 -23 247 0
343 16 71 17 72 49 72 l32 0 12 -76 c36 -232 158 -427 342 -545 70 -46 76 -48
91 -31 22 23 639 879 639 886 0 3 -235 7 -521 8 l-522 3 71 105 c123 183 295
373 529 586 141 127 184 147 318 147 70 0 104 -5 150 -23 134 -51 269 -169
377 -329 152 -228 427 -918 611 -1532 l34 -117 -55 -48 c-449 -396 -1217 -722
-1907 -808 -168 -21 -322 -31 -310 -19 6 5 62 44 125 85 143 95 244 180 310
261 44 54 105 156 97 163 -1 1 -43 -6 -92 -16 -361 -73 -770 -73 -1128 1 -54
11 -101 18 -104 15 -3 -3 9 -31 28 -61 68 -112 229 -252 439 -380 52 -32 100
-63 105 -68 21 -19 -330 18 -548 58 -492 91 -994 291 -1392 556 -173 116 -365
271 -365 297 0 45 183 591 298 892 250 651 414 907 657 1025 117 57 223 66
343 30z m3378 -201 c273 -213 468 -434 581 -658 l36 -71 -6 -130 c-7 -151 -34
-264 -95 -396 -51 -112 -99 -188 -106 -169 -2 8 -26 94 -51 190 -170 644 -357
1092 -559 1345 -18 22 -36 46 -41 54 -11 19 122 -72 241 -165z m3126 -824 c-2
-33 1 -80 8 -104 17 -61 77 -135 140 -174 55 -34 35 -35 -30 -2 -99 51 -164
201 -130 304 6 20 13 36 14 36 1 0 0 -27 -2 -60z m-2425 -382 c-15 -234 -105
-462 -265 -671 -97 -128 -138 -163 -229 -198 l-26 -10 7 104 7 104 91 93 c174
178 328 419 389 608 12 39 25 72 27 72 3 0 2 -46 -1 -102z m2605 -29 c-6 -41
-119 -481 -169 -661 l-48 -170 -3 88 c-7 202 53 453 168 707 30 67 59 87 52
36z m-227 -112 c-44 -95 -87 -225 -111 -337 -15 -67 -19 -125 -19 -280 1 -177
4 -206 29 -313 66 -285 191 -594 358 -888 137 -242 178 -391 178 -653 0 -149
-7 -213 -41 -364 -24 -105 -35 -118 -19 -21 18 111 24 317 11 429 -24 211 -46
277 -211 635 -156 337 -274 663 -320 880 -26 126 -37 369 -21 475 26 168 70
296 148 437 26 46 48 81 50 80 2 -2 -13 -38 -32 -80z m-8078 -229 c33 -46 104
-129 157 -185 75 -81 96 -109 96 -131 0 -16 3 -65 6 -108 l5 -79 -62 65 c-166
174 -286 374 -343 574 -39 133 -32 142 27 38 29 -50 80 -129 114 -174z m527
-501 c383 -277 919 -508 1430 -617 l58 -12 -92 -41 -92 -40 -167 41 c-398 99
-842 278 -1176 475 -102 59 -94 44 -109 226 l-7 83 28 -21 c15 -12 73 -54 127
-94z m4542 71 c-3 -13 -6 -48 -6 -79 l0 -56 -681 -313 c-777 -358 -738 -345
-865 -290 l-75 33 188 48 c376 95 728 235 1039 415 102 58 306 194 359 238 37
31 49 32 41 4z m-5401 -429 c-61 -250 -71 -556 -25 -771 58 -274 180 -512 371
-723 l54 -60 -59 50 c-32 28 -97 90 -143 140 -335 358 -441 782 -303 1204 28
87 118 277 126 268 3 -2 -7 -51 -21 -108z m780 55 c134 -78 442 -227 585 -283
184 -73 396 -142 576 -187 l151 -38 -11 -28 c-8 -21 -5 -52 12 -135 36 -176
29 -236 -53 -478 -24 -71 -46 -141 -49 -155 -5 -23 -44 -44 -333 -176 l-328
-151 -8 36 c-32 137 -70 220 -194 425 -192 317 -313 606 -393 940 -44 184 -60
276 -46 276 6 0 47 -21 91 -46z m4580 -306 c-11 -47 -93 -301 -104 -317 -7
-11 -27 -11 -112 -2 -116 12 -256 35 -339 55 l-55 13 105 49 c57 27 192 90
300 141 107 50 199 92 203 92 5 1 5 -14 2 -31z m-2305 -89 c118 -1 270 4 336
11 129 12 180 5 289 -40 37 -16 39 -17 19 -28 -29 -15 -272 -39 -479 -47 -231
-9 -683 19 -815 51 l-25 6 25 10 c14 6 64 22 112 37 86 26 88 26 205 14 65 -7
215 -13 333 -14z m-550 -183 c221 -29 447 -39 700 -32 135 3 272 9 305 12 33
4 57 3 53 -1 -9 -9 -1342 -624 -1345 -621 -2 2 17 76 42 165 57 210 69 292 61
410 l-7 94 38 -6 c21 -4 90 -13 153 -21z m1335 -371 c218 -290 542 -523 882
-632 62 -20 112 -38 110 -40 -10 -9 -195 32 -298 67 -272 90 -469 224 -632
430 -54 69 -136 219 -151 280 l-7 25 18 -25 c10 -14 45 -61 78 -105z m-149
-143 c12 -20 51 -71 87 -113 55 -65 66 -83 72 -126 8 -58 50 -153 87 -198 17
-20 27 -48 31 -84 7 -58 17 -71 58 -71 43 0 48 14 33 93 -11 56 -11 78 -2 104
7 18 17 33 23 33 5 0 102 -49 213 -109 112 -61 242 -123 288 -140 101 -37 257
-77 335 -86 126 -15 509 74 762 177 54 22 101 38 103 35 3 -3 8 -56 11 -119
13 -274 -84 -506 -298 -713 -155 -150 -367 -276 -596 -355 l-92 -32 -94 21
c-350 76 -643 36 -909 -125 -100 -61 -173 -128 -228 -211 -29 -43 -59 -81 -69
-84 -29 -11 -192 -30 -335 -39 -149 -10 -401 1 -540 23 l-79 12 -39 65 c-103
174 -347 326 -603 376 -140 28 -346 24 -507 -10 l-126 -26 -85 25 c-214 62
-460 188 -550 282 l-27 29 1522 702 c838 385 1525 701 1528 701 3 1 15 -16 26
-37z m-1624 -147 c-4 -36 -12 -60 -21 -63 -11 -4 -12 2 -7 24 29 121 41 136
28 39z m-1627 -686 c39 -28 77 -54 85 -59 18 -11 22 -8 -79 -54 -68 -32 -85
-36 -92 -25 -12 20 -49 181 -49 214 l0 28 33 -27 c17 -14 64 -49 102 -77z
m7165 -569 c-4 -41 -7 -76 -5 -78 1 -1 24 7 50 18 26 11 49 19 51 17 5 -5
-178 -343 -323 -597 -228 -397 -540 -883 -799 -1249 l-79 -111 -83 0 -84 0 38
53 c404 558 785 1173 1114 1795 67 128 124 231 125 230 1 -2 -1 -37 -5 -78z
m-8297 -117 c-38 -125 32 -274 160 -337 58 -30 33 -35 -29 -7 -128 58 -198
225 -146 344 27 60 34 60 15 0z m-2109 -2271 c33 -59 105 -188 161 -287 56
-99 136 -241 178 -315 41 -74 314 -560 606 -1079 l531 -944 0 -674 0 -675 -32
7 c-101 22 -273 163 -365 300 -22 33 -511 881 -1088 1885 -576 1004 -1056
1840 -1067 1858 l-20 32 519 0 518 0 59 -108z m4356 104 c0 -2 -42 -75 -94
-163 -51 -87 -230 -392 -398 -678 -168 -286 -610 -1040 -983 -1675 -373 -635
-701 -1188 -729 -1229 -100 -146 -277 -300 -364 -317 l-32 -6 0 652 0 652 812
1384 812 1384 488 0 c268 0 488 -2 488 -4z m4690 -1 c0 -2 -80 -129 -178 -282
-98 -153 -217 -339 -264 -413 l-86 -135 -1283 -5 c-1011 -5 -1293 -9 -1325
-19 l-41 -13 -265 269 c-145 147 -285 291 -311 319 l-46 50 72 41 c152 85 357
150 549 172 51 6 107 13 123 15 45 5 3055 7 3055 1z m-3452 -996 l52 -56 -16
-39 c-22 -50 -31 -231 -15 -302 33 -156 132 -253 303 -299 57 -15 182 -17
1243 -23 1274 -7 1222 -5 1423 -61 78 -22 195 -69 242 -98 l30 -17 -231 -278
-231 -277 -45 42 c-47 43 -116 78 -198 99 -39 11 -311 15 -1225 20 -1014 6
-1185 9 -1245 22 -284 64 -442 143 -595 298 -131 132 -202 276 -247 496 -25
124 -25 442 0 568 35 171 94 325 168 433 l29 42 253 -257 c139 -141 276 -282
305 -313z m3557 -1209 c78 -155 109 -312 109 -555 -1 -288 -41 -484 -140 -683
-90 -179 -228 -314 -422 -411 -159 -80 -343 -129 -562 -151 -82 -8 -580 -10
-1721 -8 l-1606 3 261 407 261 407 1385 4 c1298 3 1389 4 1445 21 174 52 260
140 301 305 l20 84 294 353 294 353 24 -32 c13 -18 38 -61 57 -97z"/>
<path d="M12290 20848 c-47 -22 -177 -79 -290 -128 -1805 -777 -3695 -1227
-5648 -1344 -122 -7 -225 -16 -228 -19 -3 -3 47 -64 112 -136 80 -89 124 -131
138 -131 79 0 495 24 716 40 1552 119 3047 471 4514 1064 229 93 620 263 719
313 l49 24 221 -99 c1084 -488 2158 -833 3286 -1058 813 -162 1675 -260 2471
-280 135 -4 253 -11 263 -16 21 -11 22 -87 7 -403 -69 -1416 -314 -2823 -711
-4087 l-40 -127 32 -63 32 -63 95 285 c433 1308 714 2758 816 4205 27 378 31
516 15 526 -8 5 -54 9 -104 9 -122 0 -530 26 -810 50 -1879 167 -3695 643
-5434 1424 -69 31 -127 56 -130 55 -3 0 -44 -19 -91 -41z"/>
<path d="M5936 19099 c2 -19 8 -115 14 -214 61 -1003 233 -2101 495 -3145 541
-2158 1530 -4231 2823 -5918 100 -130 127 -160 138 -151 17 14 24 2 -104 168
-1874 2433 -2987 5552 -3143 8806 l-12 250 -56 65 c-31 35 -79 89 -107 119
l-50 54 2 -34z"/>
<path d="M10835 17974 c-158 -135 -346 -315 -478 -458 -160 -173 -277 -305
-252 -285 11 9 63 52 116 97 52 44 144 110 205 146 60 36 104 66 97 66 -7 0
-17 9 -23 21 -16 30 -6 42 232 285 116 118 209 214 207 214 -2 0 -49 -39 -104
-86z"/>
<path d="M10069 16893 c-106 -111 -219 -250 -288 -351 -75 -112 -193 -337
-231 -440 -28 -77 -28 -81 -15 -143 18 -85 45 -159 88 -244 l35 -70 12 45
c135 521 304 983 449 1228 17 28 30 52 28 52 -3 0 -38 -35 -78 -77z"/>
<path d="M10343 16344 c-10 -27 6 -215 27 -302 28 -119 126 -343 148 -342 6 0
220 293 445 607 l38 53 -326 0 c-288 0 -326 -2 -332 -16z"/>
<path d="M11148 16343 c-9 -10 -136 -184 -283 -387 l-266 -369 30 -31 c19 -19
34 -27 40 -21 16 17 591 815 591 820 0 3 -22 5 -48 5 -34 0 -54 -5 -64 -17z"/>
<path d="M13922 16308 c-44 -60 -605 -835 -641 -886 -13 -18 -21 -35 -19 -38
3 -2 31 -6 64 -9 l59 -6 350 486 c193 267 352 490 353 495 2 6 -25 10 -62 10
l-65 0 -39 -52z"/>
<path d="M14132 16323 c-60 -78 -682 -942 -682 -949 0 -11 121 4 207 26 365
93 632 438 650 843 l6 117 -76 0 c-75 0 -75 0 -105 -37z"/>
<path d="M14596 16913 c138 -240 275 -594 389 -1008 26 -93 53 -190 60 -215
l12 -45 30 60 c73 145 113 308 113 462 0 95 -12 125 -108 273 -115 178 -308
378 -504 524 l-37 28 45 -79z"/>
<path d="M15218 15532 c-53 -99 -150 -224 -259 -337 l-96 -100 -6 -62 c-5 -67
-3 -70 38 -51 47 21 213 244 278 373 29 58 89 225 85 236 -2 4 -19 -22 -40
-59z"/>
<path d="M9625 15315 c38 -73 120 -191 180 -260 l34 -40 1 48 c0 48 -1 50 -93
145 -51 54 -107 115 -126 137 l-33 40 37 -70z"/>
<path d="M10051 14898 c1 -97 7 -105 109 -165 223 -129 597 -294 845 -373 55
-17 178 -52 274 -77 155 -40 176 -43 204 -32 l31 13 -35 8 c-459 107 -987 343
-1351 603 l-78 56 1 -33z"/>
<path d="M14575 14865 c-39 -27 -82 -58 -95 -67 -14 -10 16 1 65 23 103 46
108 50 103 76 -3 16 -12 12 -73 -32z"/>
<path d="M13343 14301 c-73 -20 -133 -40 -133 -45 0 -21 119 5 201 43 46 22
80 39 74 39 -5 0 -70 -16 -142 -37z"/>
<path d="M9188 14228 c-21 -115 -16 -335 10 -441 20 -82 80 -242 88 -235 2 2
-7 38 -20 80 -47 152 -61 259 -61 471 0 108 -1 197 -2 197 0 0 -7 -33 -15 -72z"/>
<path d="M11862 14182 c-13 -9 161 -25 398 -37 122 -6 528 11 576 24 l29 8
-32 7 c-17 4 -75 3 -130 -3 -175 -18 -365 -22 -513 -12 -80 6 -183 13 -230 16
-47 4 -91 2 -98 -3z"/>
<path d="M16810 11928 c-261 -505 -654 -1144 -1036 -1685 l-65 -93 33 0 c31 1
39 9 150 168 253 363 492 737 705 1102 120 205 313 554 313 564 0 3 -8 6 -18
6 -10 0 -23 5 -29 11 -7 7 -23 -14 -53 -73z"/>
<path d="M12235 20113 c-509 -234 -1256 -512 -1866 -697 -1143 -345 -2393
-566 -3539 -626 -113 -6 -238 -13 -277 -16 l-73 -6 0 -67 c0 -178 50 -790 96
-1181 276 -2337 1055 -4555 2272 -6470 198 -312 366 -554 600 -869 l144 -195
24 40 c12 21 34 58 48 82 l26 42 833 0 c859 0 857 0 857 -38 0 -8 -171 -306
-380 -662 l-380 -648 176 -173 c96 -96 180 -177 187 -180 9 -6 12 43 12 204 1
160 5 237 19 312 120 661 535 1039 1276 1162 96 16 232 18 1561 20 l1456 4 90
122 c470 637 911 1364 1289 2122 l145 291 -26 89 c-51 176 -129 334 -231 471
-24 32 -101 120 -170 195 -200 218 -272 315 -349 469 -117 233 -177 479 -193
792 l-7 135 -120 -54 c-66 -30 -121 -55 -122 -57 -1 -1 9 -37 23 -80 67 -214
95 -423 95 -736 0 -352 -24 -428 -193 -606 l-68 -72 9 -48 c23 -114 43 -371
37 -466 -36 -529 -288 -955 -688 -1163 l-78 -41 56 -54 c246 -241 324 -525
210 -767 -68 -143 -170 -206 -376 -233 -102 -14 -1023 -5 -1170 11 -106 12
-238 47 -308 83 -166 84 -335 283 -392 460 -11 36 -14 38 -44 32 -172 -35
-221 -40 -406 -40 -178 0 -317 14 -402 40 -12 3 -19 -5 -28 -33 -23 -70 -90
-189 -145 -256 -141 -171 -316 -260 -562 -286 -151 -16 -1177 -19 -1235 -4
-157 42 -253 113 -303 224 -110 246 -45 501 193 750 46 49 83 91 81 93 -2 2
-20 11 -39 21 -90 46 -194 127 -297 231 l-112 114 -226 -104 c-217 -100 -227
-105 -255 -149 -57 -91 -175 -124 -277 -77 -125 56 -224 241 -210 392 14 158
132 261 264 231 44 -10 49 -9 261 89 119 55 218 101 219 102 2 1 -6 43 -17 92
-11 49 -24 148 -30 219 -9 110 -8 154 7 288 l19 157 -63 98 c-90 138 -159 283
-178 375 -25 115 -16 580 13 752 39 219 88 374 166 521 l45 85 -36 56 c-86
135 -163 380 -184 585 -24 244 23 493 140 743 93 197 385 663 583 931 616 829
1396 1397 2359 1717 174 58 238 70 374 70 137 0 223 -18 420 -91 643 -236
1211 -597 1786 -1134 567 -530 1034 -1250 1136 -1754 27 -132 25 -481 -3 -615
l-20 -97 40 18 c303 132 1854 855 1861 867 71 118 197 151 314 82 18 -11 35
-19 36 -17 5 6 86 469 115 658 79 522 136 1092 166 1653 6 120 5 127 -12 127
-53 0 -435 22 -614 35 -1735 128 -3432 553 -5055 1265 -126 55 -236 100 -245
99 -8 0 -69 -26 -135 -56z"/>
<path d="M12485 8659 c-22 -5 -46 -17 -52 -26 -15 -20 -17 -127 -3 -153 22
-41 57 -44 715 -47 l630 -4 125 120 125 120 -750 -1 c-420 0 -768 -4 -790 -9z"/>
<path d="M14408 8658 c23 -23 11 -43 -80 -135 l-93 -93 46 0 c44 0 47 2 164
120 l118 120 -83 0 c-65 0 -81 -3 -72 -12z"/>
<path d="M10435 8488 c-18 -32 -19 -38 -2 -38 7 0 42 -30 77 -66 122 -124 486
-469 661 -625 223 -200 506 -436 751 -626 253 -196 233 -185 313 -181 l67 3
-64 44 c-279 195 -344 254 -307 277 7 4 -28 21 -77 39 -259 93 -496 266 -624
457 -25 37 -53 70 -62 75 -23 11 -368 328 -560 515 l-158 153 -15 -27z"/>
<path d="M11965 7243 c12 -13 211 -159 324 -238 l84 -59 30 17 c16 10 90 61
165 115 l137 97 -220 6 c-121 3 -251 11 -290 18 -80 13 -193 37 -221 47 -13 5
-16 4 -9 -3z"/>
<path d="M12784 7213 c-38 -4 -40 -6 -36 -32 4 -27 -5 -35 -132 -126 -75 -53
-136 -99 -136 -101 0 -2 36 -4 79 -4 l79 0 128 98 c71 54 151 115 177 135 l49
37 -84 -2 c-46 -1 -101 -3 -124 -5z"/>
<path d="M13449 7213 c-32 -4 -35 -7 -31 -31 3 -24 -9 -37 -112 -121 -64 -51
-119 -98 -122 -103 -4 -6 254 -8 683 -6 665 3 689 4 728 23 42 21 52 42 54
111 2 67 -16 102 -57 116 -27 9 -183 12 -572 14 -294 0 -551 -1 -571 -3z"/>
<path d="M16230 7820 l0 -2290 1687 2 1687 3 443 685 443 685 -1438 5 -1437 5
-3 1598 -2 1597 -690 0 -690 0 0 -2290z m1099 508 l0 -1503 -409 -415 -410
-415 0 1918 0 1917 410 0 410 0 -1 -1502z m2641 -1703 c0 -3 -118 -187 -261
-410 l-262 -405 -1361 0 -1360 0 404 409 405 408 1218 2 c669 0 1217 -1 1217
-4z"/>
<path d="M8060 4660 l0 -511 348 3 c329 3 349 4 382 24 19 11 45 35 57 54 23
32 23 39 23 311 l0 278 -32 37 c-55 62 -66 64 -383 64 l-285 0 0 125 0 125
-55 0 -55 0 0 -510z m682 133 c16 -15 18 -36 18 -259 0 -240 0 -243 -22 -258
-19 -14 -63 -16 -274 -16 l-253 0 -21 27 c-20 26 -21 35 -18 261 3 218 4 235
22 248 16 11 70 14 275 14 223 0 257 -2 273 -17z"/>
<path d="M8232 4538 l3 -233 245 0 245 0 3 233 2 232 -250 0 -250 0 2 -232z"/>
<path d="M6190 5078 c-18 -13 -43 -36 -54 -51 -20 -27 -21 -41 -24 -384 -3
-344 -2 -357 18 -399 13 -26 36 -53 58 -66 37 -23 39 -23 475 -26 l437 -3 0
56 0 55 -420 0 c-407 0 -421 1 -440 20 -19 19 -20 33 -20 345 l0 326 25 24 24
25 416 0 415 0 0 50 0 50 -439 0 c-438 0 -438 0 -471 -22z"/>
<path d="M7167 4914 c-11 -11 -8 -604 3 -646 13 -44 66 -93 117 -107 22 -7
150 -11 306 -11 l267 0 0 -78 c0 -118 15 -112 -293 -112 l-257 0 0 -55 0 -55
267 0 c249 0 269 1 309 21 24 11 52 35 64 53 19 32 20 48 20 515 l0 481 -55 0
-55 0 0 -314 c0 -314 0 -315 -22 -330 -19 -14 -62 -16 -274 -16 -230 0 -252 2
-267 18 -15 16 -17 57 -19 328 l-3 309 -50 3 c-28 2 -54 0 -58 -4z"/>
<path d="M9015 4906 c-44 -20 -85 -68 -96 -112 -12 -56 -11 -471 2 -519 14
-50 64 -100 114 -114 25 -7 161 -11 368 -11 l327 0 0 55 0 55 -328 0 c-280 0
-331 2 -350 16 -20 14 -22 23 -22 110 l0 94 350 0 350 0 0 153 c0 141 -2 157
-23 197 -16 30 -37 51 -67 67 -42 22 -50 23 -319 23 -208 -1 -283 -4 -306 -14z
m576 -106 c17 -10 19 -22 19 -110 l0 -100 -290 0 -290 0 0 92 c0 136 -19 128
287 128 156 0 262 -4 274 -10z"/>
<path d="M9080 4700 l0 -70 250 0 250 0 0 70 0 70 -250 0 -250 0 0 -70z"/>
<path d="M9894 4901 c-23 -10 -52 -34 -65 -52 l-24 -34 -3 -332 -3 -333 56 0
55 0 0 310 c0 297 1 311 20 330 19 19 33 20 255 20 l235 0 0 55 0 55 -242 0
c-215 0 -248 -3 -284 -19z"/>
<path d="M10531 4898 c-76 -39 -86 -61 -86 -196 0 -107 2 -120 24 -151 47 -65
74 -71 372 -71 314 0 299 6 299 -108 0 -116 11 -112 -295 -112 -242 0 -256 1
-275 20 -11 11 -20 25 -20 30 0 6 -25 10 -55 10 -49 0 -55 -2 -55 -21 0 -38
33 -90 73 -117 l41 -27 291 0 291 0 41 27 c59 39 73 77 73 196 0 86 -3 103
-22 132 -52 75 -47 74 -365 80 -331 6 -313 0 -313 110 0 115 -14 110 296 110
l265 0 17 -30 c15 -27 22 -30 70 -30 49 0 52 1 52 25 0 38 -25 80 -67 112
l-36 28 -286 3 c-281 3 -287 2 -330 -20z"/>
<path d="M11405 4906 c-16 -8 -43 -28 -60 -45 l-30 -32 -3 -283 c-3 -280 -3
-282 20 -316 13 -19 39 -43 58 -54 33 -20 53 -21 383 -24 l347 -3 0 56 0 55
-328 0 c-280 0 -331 2 -350 16 -20 14 -22 23 -22 110 l0 94 350 0 350 0 0 158
c0 144 -2 160 -23 197 -14 26 -37 48 -67 63 -43 21 -54 22 -320 22 -207 -1
-282 -4 -305 -14z m576 -106 c17 -10 19 -22 19 -110 l0 -100 -290 0 -290 0 0
92 c0 136 -19 128 287 128 156 0 262 -4 274 -10z"/>
<path d="M11470 4700 l0 -70 250 0 250 0 0 70 0 70 -250 0 -250 0 0 -70z"/>
<path d="M12264 4901 c-23 -10 -52 -34 -65 -52 -24 -34 -24 -37 -27 -302 -3
-304 -1 -318 71 -365 l40 -27 349 -3 348 -3 0 55 0 56 -330 0 c-317 0 -331 1
-350 20 -19 19 -20 33 -20 253 0 194 3 236 16 255 15 22 15 22 350 22 l334 0
0 55 0 55 -337 0 c-308 0 -342 -2 -379 -19z"/>
<path d="M13040 4599 c0 -313 1 -322 22 -361 12 -21 38 -49 58 -61 34 -21 44
-22 325 -22 275 0 292 1 325 21 19 11 45 35 57 54 23 33 23 37 23 361 l0 329
-55 0 -55 0 0 -314 c0 -314 0 -315 -22 -330 -19 -14 -63 -16 -275 -16 -240 0
-254 1 -273 20 -19 19 -20 33 -20 330 l0 310 -55 0 -55 0 0 -321z"/>
<path d="M14035 4906 c-17 -7 -45 -29 -62 -49 -42 -48 -45 -78 -41 -422 l3
-280 55 0 55 0 3 309 c2 271 4 312 19 328 15 16 37 18 250 18 l233 0 0 55 0
55 -242 0 c-178 -1 -251 -4 -273 -14z"/>
<path d="M14580 4535 l0 -385 55 0 55 0 0 385 0 385 -55 0 -55 0 0 -385z"/>
<path d="M10604 4756 c-3 -7 -4 -38 -2 -67 l3 -54 280 -5 c302 -5 298 -5 363
-63 l22 -20 0 81 0 81 -77 3 c-73 3 -77 4 -83 28 l-6 25 -247 3 c-204 2 -248
0 -253 -12z"/>
<path d="M12334 4757 c-2 -7 -3 -111 -2 -232 l3 -220 338 -3 337 -2 0 235 0
235 -335 0 c-263 0 -337 -3 -341 -13z"/>
<path d="M9417 4443 l-338 -3 3 -68 3 -67 343 -5 342 -5 0 78 c0 42 -3 76 -7
75 -5 -2 -160 -4 -346 -5z"/>
<path d="M11472 4373 l3 -68 333 -3 332 -2 0 70 0 70 -335 0 -336 0 3 -67z"/>
<path d="M14580 5115 l0 -55 55 0 55 0 0 55 0 55 -55 0 -55 0 0 -55z"/>
<path d="M14810 4716 l0 -453 23 -33 c44 -66 72 -75 260 -78 l167 -4 0 56 0
56 -148 0 c-117 0 -152 3 -170 16 -22 15 -22 18 -22 275 l0 259 170 0 170 0 0
55 0 55 -170 0 -170 0 0 125 0 125 -55 0 -55 0 0 -454z"/>
<path d="M15297 4914 c-11 -11 -8 -604 3 -646 13 -44 66 -93 117 -107 22 -7
150 -11 306 -11 l267 0 0 -78 c0 -118 15 -112 -293 -112 l-257 0 0 -55 0 -55
267 0 c249 0 269 1 309 21 26 12 53 36 66 57 l23 37 0 475 0 475 -55 0 -55 0
-2 -310 c-3 -302 -3 -310 -24 -327 -19 -16 -48 -18 -269 -18 -221 0 -250 2
-269 18 -21 17 -21 25 -24 327 l-2 310 -50 3 c-28 2 -54 0 -58 -4z"/>
<path d="M14972 4538 l3 -233 143 -3 142 -3 0 236 0 235 -145 0 -145 0 2 -232z"/>
<path d="M17570 4738 c0 -263 4 -447 10 -470 13 -44 66 -93 117 -107 21 -6 68
-11 106 -11 l67 0 0 55 0 55 -73 0 c-116 0 -107 -38 -107 473 l0 437 -60 0
-60 0 0 -432z"/>
<path d="M18810 4659 l0 -510 348 3 c337 3 348 4 382 25 20 12 46 40 58 62 22
40 23 46 20 308 -3 265 -3 268 -27 302 -47 66 -72 71 -388 71 l-283 0 0 125 0
125 -55 0 -55 0 0 -511z m680 131 c19 -19 20 -33 20 -255 0 -222 -1 -236 -20
-255 -19 -19 -33 -20 -273 -20 -212 0 -256 2 -275 16 -22 15 -22 18 -22 256 0
211 2 244 17 260 15 17 37 18 275 18 245 0 259 -1 278 -20z"/>
<path d="M18975 4757 c-3 -7 -4 -111 -3 -232 l3 -220 250 0 250 0 0 230 0 230
-248 3 c-195 2 -249 0 -252 -11z"/>
<path d="M16592 5083 c-18 -9 -43 -30 -55 -47 -22 -31 -22 -35 -22 -408 0
-367 1 -377 21 -405 12 -15 36 -37 55 -48 33 -19 52 -20 469 -20 l435 0 3 53
3 52 -418 0 c-363 0 -422 2 -441 16 -22 15 -22 15 -22 350 0 321 1 335 20 354
19 19 33 20 440 20 l420 0 0 50 0 50 -437 0 c-383 0 -442 -2 -471 -17z"/>
<path d="M17105 4960 l-430 -5 0 -325 0 -325 433 -5 432 -5 0 338 c0 185 -1
336 -2 335 -2 -2 -196 -5 -433 -8z"/>
<path d="M17930 4600 c0 -299 1 -323 20 -359 11 -22 36 -50 57 -62 38 -24 41
-24 328 -24 275 0 292 1 325 21 19 11 45 35 57 54 23 33 23 37 23 361 l0 329
-55 0 -55 0 0 -314 c0 -314 0 -315 -22 -330 -19 -14 -63 -16 -275 -16 -240 0
-254 1 -273 20 -19 19 -20 33 -20 330 l0 310 -55 0 -55 0 0 -320z"/>
</g>
</svg>
